<svg xmlns="http://www.w3.org/2000/svg" viewBox="0 0 32 32" width="32" height="32">
  <!-- Gradient definitions -->
  <defs>
    <linearGradient id="rocketGradient" x1="0%" y1="0%" x2="100%" y2="100%">
      <stop offset="0%" style="stop-color:#2563eb;stop-opacity:1" />
      <stop offset="100%" style="stop-color:#1d4ed8;stop-opacity:1" />
    </linearGradient>
    <linearGradient id="flameGradient" x1="0%" y1="0%" x2="100%" y2="100%">
      <stop offset="0%" style="stop-color:#f97316;stop-opacity:1" />
      <stop offset="100%" style="stop-color:#ea580c;stop-opacity:1" />
    </linearGradient>
  </defs>
  
  <!-- Background circle -->
  <circle cx="16" cy="16" r="15" fill="#ffffff" stroke="#e5e7eb" stroke-width="1"/>
  
  <!-- Rocket body -->
  <path d="M16 4 L20 8 L20 20 L16 24 L12 20 L12 8 Z" fill="url(#rocketGradient)"/>
  
  <!-- Rocket nose -->
  <path d="M16 4 L18 8 L16 6 L14 8 Z" fill="#1e40af"/>
  
  <!-- Rocket window -->
  <circle cx="16" cy="12" r="2" fill="#60a5fa" opacity="0.8"/>
  <circle cx="16" cy="12" r="1" fill="#ffffff" opacity="0.9"/>
  
  <!-- Rocket fins -->
  <path d="M12 16 L8 20 L12 20 Z" fill="#1e40af"/>
  <path d="M20 16 L24 20 L20 20 Z" fill="#1e40af"/>
  
  <!-- Rocket flame -->
  <path d="M14 24 L16 28 L18 24 L16 26 Z" fill="url(#flameGradient)"/>
  
  <!-- Stars -->
  <circle cx="8" cy="8" r="0.5" fill="#fbbf24"/>
  <circle cx="24" cy="10" r="0.5" fill="#fbbf24"/>
  <circle cx="26" cy="24" r="0.5" fill="#fbbf24"/>
</svg>